<svg xmlns="http://www.w3.org/2000/svg" width="500" height="500" style="shape-rendering:geometricPrecision;text-rendering:geometricPrecision;image-rendering:optimizeQuality;fill-rule:evenodd;clip-rule:evenodd"><path style="opacity:0" fill="#fefefe" d="M-.5-.5h500v500H-.5z"/><path style="opacity:1" fill="#0052D4" d="M227.5 43.5q131.793-6.737 201.5 104 52.389 100.651 1 202-55.573 93.7-164.5 105.5-107.215 5.948-176.5-75.5-63.62-84.18-38-187Q85.75 85.75 192.5 51q17.623-4.095 35-7.5"/><path style="opacity:1" fill="#fdfdfe" d="M157.5 156.5h83v192q-40.503.25-81-.5-70.08-4.589-82.5-73.5-8.39-47.043 17-87 25.431-28.591 63.5-31"/><path style="opacity:1" fill="#fefefe" d="M255.5 158.5q40.503-.25 81 .5 72.827 5.33 82.5 77.5 2.616 29.485-5 58-10.13 30.617-38.5 45.5-22.059 9.462-46 9.5h-74z"/><path style="opacity:1" fill="#0052D4" d="M161.5 188.5h41v128a840 840 0 0 1-41-.5q-40.43-5.93-45.5-46.5-1-18 0-36 6.697-38.947 45.5-45"/><path style="opacity:1" fill="#0052D4" d="M293.5 190.5q18.007-.25 36 .5 44.425 2.425 50.5 46.5 3.345 27.777-6 54-13.619 24.957-42.5 26h-38z"/><path style="opacity:1" fill="#5f82ca" d="M293.5 190.5v127h38a381 381 0 0 1-39 1q-.498-64.255 1-128"/><path style="opacity:1" fill="#9fb3df" d="M255.5 158.5v191h74a1407 1407 0 0 1-75 1 9221 9221 0 0 1 1-192"/></svg>